<?xml version="1.0" standalone="no"?>
<!DOCTYPE svg PUBLIC "-//W3C//DTD SVG 20010904//EN"
 "http://www.w3.org/TR/2001/REC-SVG-20010904/DTD/svg10.dtd">
<svg version="1.0" xmlns="http://www.w3.org/2000/svg"
 width="512.000000pt" height="512.000000pt" viewBox="0 0 512.000000 512.000000"
 preserveAspectRatio="xMidYMid meet">

<g transform="translate(0.000000,512.000000) scale(0.100000,-0.100000)"
fill="#000000" stroke="none">
<path d="M2459 5092 c-76 -40 -112 -94 -117 -176 -5 -78 9 -125 52 -171 l33
-35 -109 -132 c-130 -156 -247 -306 -343 -440 l-70 -97 -85 6 c-78 5 -87 4
-104 -16 -41 -46 -15 -112 50 -128 l34 -8 -37 -55 c-102 -151 -213 -338 -213
-358 0 -70 44 -89 148 -62 81 20 245 51 250 46 1 -2 -56 -76 -128 -164 l-130
-161 -47 20 c-60 25 -98 18 -119 -23 -21 -41 -11 -75 31 -100 19 -11 35 -21
35 -22 0 -2 -32 -45 -70 -96 -39 -52 -73 -105 -77 -118 -8 -35 26 -76 66 -80
40 -4 55 8 134 113 33 44 68 89 79 101 l18 21 112 -39 c202 -70 637 -178 714
-178 33 0 64 37 64 75 0 52 -26 69 -137 89 -196 37 -568 137 -631 170 -23 12
-23 13 69 127 51 63 126 155 168 204 125 147 132 165 86 211 -29 29 -45 29
-273 -3 -62 -8 -115 -13 -118 -10 -2 2 36 65 85 139 l90 135 143 6 c294 13
538 81 750 208 45 27 85 49 89 49 5 0 31 -31 59 -69 28 -38 57 -72 66 -75 53
-20 104 12 104 65 0 22 -16 53 -55 106 l-55 76 45 48 c51 54 59 95 25 129 -33
33 -78 26 -123 -17 l-39 -38 -36 45 c-21 24 -85 102 -143 172 l-106 128 32 35
c44 46 58 93 53 171 -5 84 -41 138 -117 177 -73 36 -131 36 -202 -1z m149
-142 c47 -44 15 -130 -48 -130 -38 0 -70 34 -70 75 0 41 32 75 70 75 14 0 36
-9 48 -20z m18 -393 c183 -217 237 -289 223 -298 -121 -81 -278 -150 -420
-183 -100 -25 -248 -46 -317 -46 l-33 0 43 58 c123 167 426 541 438 541 3 0
32 -33 66 -72z"/>
<path d="M2723 3852 c-29 -4 -53 -38 -53 -74 0 -65 89 -93 129 -42 26 33 26
54 1 86 -21 28 -42 36 -77 30z"/>
<path d="M3284 3849 c-25 -9 -54 -46 -54 -69 0 -8 22 -51 50 -95 27 -44 45
-81 40 -83 -5 -2 -58 3 -117 12 -221 31 -239 31 -268 2 -29 -29 -32 -62 -9
-95 9 -12 75 -94 148 -180 131 -157 393 -488 409 -516 10 -19 -80 -20 -341 -3
l-182 11 -25 -23 c-30 -28 -32 -69 -7 -100 24 -29 100 -38 430 -46 l252 -7
119 -166 c108 -153 167 -238 184 -268 5 -8 -10 -7 -49 3 -106 28 -270 55 -370
61 -94 5 -103 4 -123 -16 -41 -41 -30 -74 67 -185 177 -203 343 -409 335 -417
-14 -13 -301 -99 -468 -139 -352 -85 -836 -150 -1126 -150 -62 0 -81 -4 -103
-21 -33 -26 -36 -79 -6 -109 24 -24 97 -26 328 -10 486 35 939 122 1347 260
65 22 125 40 132 40 26 0 606 -790 590 -806 -6 -6 -225 -20 -531 -33 -195 -9
-210 -11 -232 -32 -29 -27 -31 -68 -5 -100 18 -23 24 -24 128 -21 151 3 686
31 757 38 69 7 96 29 96 77 0 26 -24 69 -108 193 -148 218 -231 335 -399 558
l-143 191 39 17 c41 17 71 51 71 80 0 9 -11 29 -23 44 -29 33 -62 34 -131 4
-40 -17 -52 -18 -62 -8 -7 7 -80 94 -162 193 -94 113 -144 181 -135 183 22 6
207 -37 345 -79 70 -22 134 -39 143 -39 24 0 65 46 65 72 0 23 -147 251 -308
478 -76 106 -80 115 -60 118 60 9 86 77 49 123 -18 22 -26 24 -99 22 l-80 -2
-73 97 c-89 119 -325 416 -392 495 -27 32 -48 59 -46 62 6 5 161 -23 251 -45
84 -22 118 -17 137 19 21 39 9 68 -94 233 -110 173 -133 195 -181 177z"/>
<path d="M2459 3503 c-35 -19 -64 -43 -84 -71 -27 -40 -30 -51 -30 -126 0 -73
3 -87 27 -124 15 -22 49 -54 75 -69 100 -59 237 -27 301 69 24 37 27 51 27
124 0 75 -3 86 -30 126 -38 55 -119 98 -185 98 -31 0 -65 -9 -101 -27z m151
-143 c30 -30 27 -83 -6 -109 -15 -12 -34 -21 -44 -21 -10 0 -29 9 -44 21 -52
41 -23 129 44 129 17 0 39 -9 50 -20z"/>
<path d="M1895 2610 c-44 -48 -10 -120 56 -120 28 0 42 6 53 22 22 30 20 81
-2 101 -26 24 -85 22 -107 -3z"/>
<path d="M1271 2566 c-32 -18 -331 -463 -331 -493 0 -27 41 -73 65 -73 8 0 68
16 133 36 138 42 328 86 352 82 13 -2 -15 -42 -107 -153 -69 -82 -188 -230
-266 -329 l-140 -178 -36 6 c-114 20 -131 20 -156 -4 -49 -46 -23 -115 46
-126 24 -4 38 -11 36 -18 -3 -7 -53 -79 -112 -161 -205 -286 -315 -459 -315
-493 0 -48 28 -69 102 -76 132 -13 628 -36 998 -46 212 -6 445 -13 519 -17
l133 -5 -6 -37 c-19 -114 -37 -295 -34 -355 3 -60 6 -71 28 -87 37 -27 271
-43 480 -35 207 9 264 17 291 42 21 18 21 25 16 139 -4 66 -14 167 -22 224 -9
57 -14 105 -12 107 2 3 109 7 238 11 226 6 234 7 256 29 30 30 29 69 -1 99
l-25 25 -538 -7 c-555 -6 -1181 5 -1768 32 -339 15 -445 23 -445 32 0 8 209
307 308 442 l84 114 51 -7 c119 -15 430 -45 534 -51 111 -7 113 -6 138 19 36
37 30 92 -13 115 -10 5 -92 15 -183 21 -151 10 -409 37 -416 43 -5 5 197 259
371 465 94 112 188 224 209 249 42 52 48 92 17 123 -16 16 -33 20 -81 20 -75
0 -230 -22 -366 -53 -58 -13 -99 -19 -96 -13 3 6 44 66 90 133 90 132 98 159
58 198 -27 28 -49 31 -84 11z m1517 -2123 c22 -146 34 -274 27 -281 -9 -9
-501 -9 -510 0 -7 7 5 135 27 281 l11 77 217 0 217 0 11 -77z"/>
<path d="M2713 2420 c-26 -11 -43 -40 -43 -74 0 -63 89 -90 129 -40 27 34 26
57 -1 88 -27 29 -55 38 -85 26z"/>
<path d="M2149 2156 c-58 -20 -93 -51 -123 -106 -25 -46 -28 -60 -24 -120 5
-88 39 -141 117 -182 170 -89 365 65 317 250 -33 129 -165 202 -287 158z m113
-150 c28 -21 38 -58 23 -92 -31 -74 -135 -50 -135 31 0 57 68 95 112 61z"/>
<path d="M3015 1858 c-28 -16 -35 -28 -35 -65 0 -42 30 -73 70 -73 67 0 96 88
44 129 -30 24 -50 26 -79 9z"/>
<path d="M3599 1276 c-62 -16 -104 -48 -136 -104 -23 -38 -28 -59 -28 -112 0
-87 34 -147 108 -191 47 -27 59 -30 124 -27 91 4 143 37 185 117 90 171 -66
367 -253 317z m121 -176 c28 -52 -7 -110 -65 -110 -57 0 -95 68 -61 112 30 40
104 39 126 -2z"/>
<path d="M2782 1047 c-30 -31 -28 -72 4 -104 20 -20 31 -24 57 -19 40 8 55 23
63 63 13 67 -77 110 -124 60z"/>
<path d="M1385 1015 c-30 -30 -32 -64 -4 -99 41 -53 129 -18 129 51 0 32 -42
73 -75 73 -14 0 -37 -11 -50 -25z"/>
</g>
</svg>
