<?xml version="1.0" standalone="no"?>
<!DOCTYPE svg PUBLIC "-//W3C//DTD SVG 20010904//EN"
 "http://www.w3.org/TR/2001/REC-SVG-20010904/DTD/svg10.dtd">
<svg version="1.0" xmlns="http://www.w3.org/2000/svg"
 width="512.000000pt" height="512.000000pt" viewBox="0 0 512.000000 512.000000"
 preserveAspectRatio="xMidYMid meet">

<g transform="translate(0.000000,512.000000) scale(0.100000,-0.100000)"
fill="#000000" stroke="none">
<path d="M2553 5101 c-11 -11 -24 -37 -27 -58 -4 -21 -23 -70 -42 -109 -31
-62 -36 -80 -36 -144 0 -64 4 -80 37 -143 47 -90 47 -124 0 -215 -33 -61 -37
-78 -37 -142 0 -64 5 -82 36 -144 19 -39 38 -88 42 -109 8 -46 38 -77 73 -77
83 1 97 109 31 227 -43 76 -42 119 5 209 33 63 37 79 37 144 0 65 -4 81 -37
144 -47 90 -48 133 -5 209 34 61 51 141 38 177 -18 50 -77 66 -115 31z"/>
<path d="M1923 4860 c-56 -23 -56 -112 1 -220 20 -38 36 -83 36 -100 0 -17
-17 -63 -37 -102 -35 -66 -38 -78 -38 -152 0 -74 4 -87 38 -152 20 -39 37 -83
37 -98 0 -34 41 -76 75 -76 15 0 37 11 52 26 23 23 25 31 20 80 -4 36 -18 77
-41 120 -46 83 -46 116 2 206 33 65 37 79 37 148 0 69 -4 83 -37 148 -21 39
-38 82 -38 96 0 38 -10 56 -41 71 -32 17 -35 17 -66 5z"/>
<path d="M3040 4857 c-13 -7 -29 -25 -34 -40 -14 -39 7 -131 41 -181 39 -57
39 -134 1 -191 -61 -91 -62 -205 -4 -309 20 -36 36 -78 36 -96 0 -38 39 -80
75 -80 14 0 37 11 50 25 41 40 32 122 -23 210 -42 66 -41 111 4 191 37 65 39
74 39 154 0 80 -2 89 -37 152 -21 36 -38 80 -38 96 0 58 -60 95 -110 69z"/>
<path d="M2365 3844 c-590 -36 -1045 -145 -1430 -342 -348 -178 -564 -399
-647 -662 -20 -66 -23 -93 -21 -230 4 -398 127 -821 338 -1155 187 -298 457
-568 747 -748 l74 -47 12 -96 c31 -271 191 -408 586 -504 178 -43 291 -54 536
-54 297 0 455 22 680 95 292 96 414 223 442 463 l12 96 74 47 c290 180 560
451 747 748 210 333 335 760 338 1155 2 168 -11 229 -72 355 -125 253 -411
475 -823 639 -125 50 -156 52 -183 13 -22 -31 -18 -70 8 -94 12 -11 66 -37
121 -58 234 -92 429 -209 569 -344 238 -229 292 -450 171 -700 -40 -82 -60
-109 -148 -197 -311 -313 -868 -519 -1574 -584 -148 -14 -562 -13 -722 0 -168
14 -411 53 -569 90 -138 32 -169 31 -190 -9 -17 -31 -13 -58 12 -85 17 -19 49
-31 152 -54 358 -83 723 -115 1143 -101 761 26 1470 262 1828 608 45 44 64 57
64 44 0 -34 -89 -281 -137 -384 -310 -656 -931 -1113 -1649 -1215 -158 -22
-430 -22 -588 0 -224 32 -441 98 -641 196 -443 217 -799 577 -1008 1019 -49
104 -137 350 -137 385 0 13 22 -2 78 -56 44 -41 128 -108 188 -147 104 -69
306 -174 386 -202 50 -17 88 -4 104 37 23 55 5 71 -182 164 -214 107 -303 168
-429 295 -116 115 -176 215 -201 338 -48 224 73 461 334 655 571 423 1643 589
2602 402 127 -24 148 -26 171 -14 29 14 39 33 39 68 0 38 -34 63 -112 81 -104
23 -363 62 -498 75 -125 11 -499 20 -595 14z m-623 -3330 c436 -169 965 -194
1420 -70 123 34 274 88 338 121 l33 17 -6 -41 c-12 -93 -83 -188 -174 -235
-184 -92 -506 -156 -793 -156 -287 0 -609 64 -793 156 -91 47 -162 142 -174
235 l-6 41 33 -17 c17 -9 73 -32 122 -51z"/>
<path d="M2200 3529 c-145 -13 -360 -47 -510 -81 -224 -51 -513 -151 -561
-194 -41 -37 -7 -124 49 -124 11 0 71 20 131 45 203 83 484 152 781 192 190
25 755 25 945 0 575 -77 1028 -254 1257 -489 105 -108 134 -213 87 -313 -12
-25 -24 -45 -28 -45 -4 0 -15 14 -26 32 -58 99 -247 259 -415 351 -228 125
-572 225 -935 274 -183 24 -647 24 -830 0 -567 -76 -1007 -255 -1252 -510 -44
-46 -88 -97 -98 -115 -11 -18 -22 -32 -26 -32 -4 0 -16 20 -28 45 -56 118 -3
242 162 383 48 41 59 69 42 110 -15 34 -48 48 -90 38 -13 -3 -64 -46 -113 -94
-70 -69 -98 -105 -128 -167 -89 -180 -45 -351 135 -523 479 -460 1680 -662
2651 -446 603 135 1040 398 1135 685 26 78 18 187 -21 269 -166 352 -824 642
-1609 710 -139 11 -566 11 -705 -1z m625 -490 c467 -40 855 -157 1135 -343
154 -103 301 -274 268 -313 -44 -53 -302 -194 -469 -257 -495 -184 -1170 -244
-1766 -156 -453 66 -864 218 -1086 402 l-27 23 22 45 c57 115 249 269 459 370
383 183 959 273 1464 229z"/>
<path d="M2950 2864 c-193 -51 -243 -242 -90 -345 55 -37 105 -50 190 -50 149
0 257 77 268 190 9 94 -63 174 -184 206 -71 18 -112 18 -184 -1z m190 -161
c17 -9 30 -22 30 -29 0 -21 -37 -45 -81 -52 -106 -19 -218 41 -147 79 61 33
145 34 198 2z"/>
<path d="M1915 2835 c-49 -14 -171 -43 -270 -64 -192 -41 -240 -57 -292 -97
-68 -52 -97 -168 -60 -239 73 -140 371 -227 671 -196 239 24 382 95 445 223
17 33 31 69 31 78 0 10 19 30 42 46 87 60 123 148 78 189 -34 31 -79 24 -116
-18 l-31 -37 -27 34 c-15 21 -54 48 -93 68 -63 31 -76 33 -178 36 -92 2 -124
-2 -200 -23z m322 -150 c113 -67 50 -214 -114 -265 -147 -45 -341 -49 -511
-10 -132 31 -197 74 -184 122 8 30 73 55 234 87 79 16 190 43 248 60 90 27
118 30 200 28 72 -2 103 -7 127 -22z"/>
<path d="M3623 2680 c-141 -20 -237 -128 -213 -237 40 -177 360 -231 494 -82
74 81 70 169 -9 245 -64 62 -165 89 -272 74z m149 -166 c37 -19 43 -32 23 -54
-50 -56 -235 -40 -235 20 0 50 137 72 212 34z"/>
<path d="M2609 2422 c-100 -41 -151 -103 -151 -187 0 -75 47 -136 137 -177 40
-18 68 -23 135 -23 129 0 219 45 259 129 25 51 26 84 6 134 -21 50 -51 79
-110 110 -68 35 -206 42 -276 14z m211 -150 c42 -21 44 -38 7 -66 -57 -42
-217 -20 -217 29 0 48 140 73 210 37z"/>
</g>
</svg>
